:version 1.10
:name ASF
:units
  mass 1
  length 1
  angle deg
:documentation
  ASF file generated by Kaydara
:root
  axis xyz
  order  tx ty tz rx ry rz
  position 0 0 0
  orientation 0 0 0
:bonedata
  begin
    id 1
    name RightUpLegDummy
    direction -1 2.30186e-007 8.31532e-007
    length 4.46685
    axis 0 0 0 xyz
  end
  begin
    id 2
    name RightUpLeg
    direction -2.30187e-007 -1 1.24343e-010
    length 16.4045
    axis -3.49089 -0.000906625 0.000286804 xyz
    dof rx ry rz
  end
  begin
    id 3
    name RightLeg
    direction -2.30181e-007 -1 -4.17157e-009
    length 17.5097
    axis 3.68512 0.0193738 -0.131023 xyz
    dof rx ry rz
  end
  begin
    id 4
    name RightFoot
    direction 8.31421e-007 -4.51202e-011 1
    length 6.49508
    axis 4.81691e-005 -0.120479 -0.188788 xyz
    dof rx ry rz
  end
  begin
    id 5
    name RightToes
    direction 0.00124746 -0.014064 0.9999
    length 3.85082
    axis 0.000481921 0.542163 -0.142578 xyz
    dof rx ry rz
  end
  begin
    id 6
    name SpineDummy
    direction 0.0717043 0.9409 -0.331007
    length 10.0032
    axis 0 0 0 xyz
  end
  begin
    id 7
    name Spine
    direction 2.30186e-007 1 4.58806e-011
    length 9.84055
    axis -0.001389 0.000121418 2.40972e-006 xyz
    dof rx ry rz
  end
  begin
    id 8
    name Spine1
    direction 0 0 0
    length 0
    axis -0.001389 0.000121451 1.30017e-006 xyz
    dof rx ry rz
  end
  begin
    id 9
    name HEadDummy
    direction -0.00347485 0.950688 -0.310128
    length 8.00997
    axis -0.001389 0.000121451 1.30017e-006 xyz
  end
  begin
    id 10
    name HEad
    direction -0.0222688 0.980941 0.193023
    length 5.12695
    axis -0.001389 0.000121451 1.30017e-006 xyz
    dof rx ry rz
  end
  begin
    id 11
    name LeftShoulder1Dummy
    direction 0.988871 0.146793 -0.0242004
    length 3.5792
    axis -0.001389 0.000121451 1.30017e-006 xyz
  end
  begin
    id 12
    name LeftShoulder1
    direction 0.993832 0.108932 0.020779
    length 4.16823
    axis -0.001389 0.000121451 1.30017e-006 xyz
    dof rx ry rz
  end
  begin
    id 13
    name LeftArm
    direction 1 3.44807e-006 -8.31404e-007
    length 9.91437
    axis -23.1894 0.134784 0.967509 xyz
    dof rx ry rz
  end
  begin
    id 14
    name LeftForeArm
    direction 1 3.44842e-006 -8.31581e-007
    length 9.08575
    axis -9.91835 -0.06569 -0.177793 xyz
    dof rx ry rz
  end
  begin
    id 15
    name LeftHand
    direction 0.992938 -0.0411636 0.11126
    length 5.32135
    axis -0.00960232 -0.00340091 0.185173 xyz
    dof rx ry rz
  end
  begin
    id 16
    name RightShoulderDummy
    direction -0.988871 0.146793 -0.0241962
    length 3.5792
    axis -0.001389 0.000121451 1.30017e-006 xyz
  end
  begin
    id 17
    name RightShoulder
    direction -0.993832 0.108933 0.0207785
    length 4.16823
    axis 0.215806 0.000203643 -0.0068026 xyz
    dof rx ry rz
  end
  begin
    id 18
    name RightArm
    direction -1 3.90912e-006 8.31284e-007
    length 9.91437
    axis -23.2009 -0.134239 -0.964101 xyz
    dof rx ry rz
  end
  begin
    id 19
    name RightForeArm
    direction -1 3.90882e-006 8.31502e-007
    length 9.08575
    axis -9.92322 0.0658061 0.178867 xyz
    dof rx ry rz
  end
  begin
    id 20
    name RightHand
    direction -0.992843 -0.0414603 0.112003
    length 5.28593
    axis -0.00960638 0.00330671 -0.185228 xyz
    dof rx ry rz
  end
  begin
    id 21
    name LeftUpLegDummy
    direction 1 -2.30186e-007 -8.31532e-007
    length 4.46685
    axis 0 0 0 xyz
  end
  begin
    id 22
    name LeftUpLeg
    direction -2.30187e-007 -1 6.00931e-010
    length 16.4045
    axis -3.48766 0.00143442 -0.000524262 xyz
    dof rx ry rz
  end
  begin
    id 23
    name LeftLeg
    direction -2.30187e-007 -1 1.6669e-009
    length 17.5097
    axis 3.68178 -0.00654042 -0.000285133 xyz
    dof rx ry rz
  end
  begin
    id 24
    name LeftFoot
    direction 8.31532e-007 -4.54478e-011 1
    length 6.49508
    axis 1.87233e-006 4.66016e-005 -8.6538e-006 xyz
    dof rx ry rz
  end
  begin
    id 25
    name LeftToes
    direction 0.00818058 -0.00485161 0.999955
    length 3.85048
    axis 1.06247e-005 4.65869e-005 -8.65513e-006 xyz
    dof rx ry rz
  end
:hierarchy
  begin
    root RightUpLegDummy SpineDummy LeftUpLegDummy
    RightUpLegDummy RightUpLeg
    RightUpLeg RightLeg
    RightLeg RightFoot
    RightFoot RightToes
    SpineDummy Spine
    Spine Spine1
    Spine1 HEadDummy LeftShoulder1Dummy RightShoulderDummy
    HEadDummy HEad
    LeftShoulder1Dummy LeftShoulder1
    LeftShoulder1 LeftArm
    LeftArm LeftForeArm
    LeftForeArm LeftHand
    RightShoulderDummy RightShoulder
    RightShoulder RightArm
    RightArm RightForeArm
    RightForeArm RightHand
    LeftUpLegDummy LeftUpLeg
    LeftUpLeg LeftLeg
    LeftLeg LeftFoot
    LeftFoot LeftToes
  end

:SAMPLES-PER-SECOND 30
:FULLY-SPECIFIED
:DEGREES
155
root  -21.0352 32.9371 11.454 1.42532 -41.3793 3.61784
RightUpLeg  -17.774 -0.476079 5.0296
RightLeg  57.8682 -8.2685 -11.3364
RightFoot  -7.01502 0.101118 2.02736
RightToes  -20.8221 -0.0860887 -0.183399
Spine  7.14042 3.21881 -5.87209
Spine1  10.8992 9.34491 -15.1927
HEad  -17.2231 -31.0483 27.1948
LeftShoulder1  0 -2.42657e-020 -4.95415e-022
LeftArm  -63.7037 11.671 -67.8952
LeftForeArm  66.3292 -5.54769 -0.926934
LeftHand  0.11087 -2.54905 -5.36473
RightShoulder  0 2.42657e-020 1.07489e-018
RightArm  7.21485 17.2309 92.6718
RightForeArm  50.7415 20.9536 3.83992
RightHand  3.01286 22.5999 15.3695
LeftUpLeg  -10.6057 -3.22833 -4.75785
LeftLeg  23.7804 -3.30274 -1.21054
LeftFoot  -7.75729 0.0413061 0.609232
LeftToes  -8.43377 1.33192e-006 1.13262e-007
156
root  -21.3764 32.9234 11.6987 1.76353 -42.289 2.88989
RightUpLeg  -20.4269 0.0584032 5.57639
RightLeg  58.3084 -6.40559 -9.00183
RightFoot  -6.70553 0.068967 1.55491
RightToes  -27.3833 -0.126324 -0.233375
Spine  7.42941 3.10425 -5.31921
Spine1  11.738 8.97339 -14.0603
HEad  -14.0329 -29.4144 28.2738
LeftShoulder1  0 -2.42657e-020 -4.95415e-022
LeftArm  -67.2006 16.9642 -68.0719
LeftForeArm  70.2457 -11.0775 -1.90808
LeftHand  0.0747512 -1.91773 -4.85153
RightShoulder  0 2.42657e-020 1.07489e-018
RightArm  8.50685 15.2263 91.7134
RightForeArm  49.2988 21.6262 3.97927
RightHand  2.94695 22.9425 14.8222
LeftUpLeg  -9.7541 -3.15427 -4.15831
LeftLeg  23.9692 -2.56648 -0.9512
LeftFoot  -8.77429 0.0397676 0.518334
LeftToes  -8.76137 1.33192e-006 1.13262e-007
157
root  -21.7669 32.93 11.9201 2.40338 -43.1492 1.99261
RightUpLeg  -23.2575 0.121623 5.77174
RightLeg  57.4927 -6.14258 -8.38931
RightFoot  -7.19226 0.0719677 1.52279
RightToes  -29.2783 -0.138983 -0.246919
Spine  7.55909 2.96361 -4.75914
Spine1  12.2765 8.50587 -12.8501
HEad  -9.90434 -28.5614 28.8048
LeftShoulder1  0 -2.42657e-020 -4.95415e-022
LeftArm  -69.6606 20.6232 -68.1671
LeftForeArm  72.8983 -14.8239 -2.59393
LeftHand  0.0318185 -0.907773 -4.41863
RightShoulder  0 2.42657e-020 1.07489e-018
RightArm  8.51757 13.5146 90.7755
RightForeArm  48.8676 22.0982 4.07682
RightHand  2.766 23.4151 13.6639
LeftUpLeg  -8.8469 -2.73362 -3.34229
LeftLeg  23.6722 -2.01138 -0.734348
LeftFoot  -9.50358 0.035415 0.426034
LeftToes  -9.40087 1.33192e-006 1.13262e-007
158
root  -22.2023 32.9423 12.1389 3.09436 -43.9338 1.27306
RightUpLeg  -26.2248 -0.522579 5.33234
RightLeg  55.3586 -6.03534 -7.63702
RightFoot  -8.47509 0.0921729 1.62163
RightToes  -29.3907 -0.139748 -0.247709
Spine  7.59067 2.77173 -4.26099
Spine1  12.5119 7.9973 -11.9021
HEad  -5.21482 -27.9539 28.8681
LeftShoulder1  0 -2.42657e-020 -4.95415e-022
LeftArm  -71.2511 22.814 -68.1966
LeftForeArm  73.7936 -17.4714 -3.09603
LeftHand  -0.00870757 0.272607 -3.92857
RightShoulder  0 2.42657e-020 1.07489e-018
RightArm  6.77703 12.4078 90.4107
RightForeArm  49.1744 21.845 4.02429
RightHand  2.51995 23.9905 12.1932
LeftUpLeg  -7.81464 -1.48784 -2.47623
LeftLeg  22.9538 -2.5267 -0.885835
LeftFoot  -9.88381 0.0438068 0.506617
LeftToes  -10.4145 1.33192e-006 1.13262e-007
159
root  -22.6904 32.9536 12.3862 3.99236 -43.9292 0.348923
RightUpLeg  -28.9523 -2.06199 4.72568
RightLeg  51.9606 -5.65132 -6.35106
RightFoot  -9.08462 0.0891398 1.49966
RightToes  -29.054 -0.140779 -0.248767
Spine  7.5805 2.36465 -3.68755
Spine1  12.6819 7.06303 -10.8849
HEad  -0.27658 -27.8308 28.5938
LeftShoulder1  0 -2.42657e-020 -4.95415e-022
LeftArm  -72.8111 23.5022 -68.2973
LeftForeArm  74.0458 -19.2404 -3.44093
LeftHand  -0.0214113 0.877263 -3.1412
RightShoulder  0 2.42657e-020 1.07489e-018
RightArm  2.09558 11.3527 90.4764
RightForeArm  50.2485 21.3112 3.91337
RightHand  2.43187 24.352 11.6092
LeftUpLeg  -6.87976 -0.784208 -1.41139
LeftLeg  22.3317 -3.22895 -1.09175
LeftFoot  -10.2802 0.0562378 0.625177
LeftToes  -11.1131 1.33192e-006 1.13262e-007
160
root  -23.2143 32.9325 12.6368 4.48889 -44.1544 -0.306213
RightUpLeg  -31.5058 -3.42578 3.68842
RightLeg  48.2378 -5.21351 -5.15102
RightFoot  -8.68354 0.0660711 1.24786
RightToes  -29.3069 -0.141849 -0.249861
Spine  7.68721 2.04304 -3.14453
Spine1  13.0867 6.29584 -9.93478
HEad  3.40934 -27.7331 28.1437
LeftShoulder1  0 -2.42657e-020 -4.95415e-022
LeftArm  -73.7064 22.4807 -68.6653
LeftForeArm  73.6465 -19.7763 -3.54827
LeftHand  -0.0102311 0.835441 -1.75858
RightShoulder  0 2.42657e-020 1.07489e-018
RightArm  -1.75412 11.0483 90.2662
RightForeArm  50.7366 20.8924 3.82755
RightHand  1.9003 24.2085 9.21648
LeftUpLeg  -5.68746 -0.232851 -0.564046
LeftLeg  21.8052 -3.52962 -1.15696
LeftFoot  -10.8136 0.064819 0.684829
LeftToes  -11.5969 1.33192e-006 1.13262e-007
161
root  -23.7972 32.862 12.8993 5.01892 -44.3663 -0.965439
RightUpLeg  -33.885 -4.35306 2.41356
RightLeg  44.0682 -5.3349 -4.55066
RightFoot  -8.54983 0.0593165 1.17116
RightToes  -29.7758 -0.14238 -0.250405
Spine  7.7353 1.84814 -2.66111
Spine1  13.325 5.80594 -9.14291
HEad  5.8387 -27.6929 27.9868
LeftShoulder1  0 -2.42657e-020 -4.95415e-022
LeftArm  -73.7365 20.245 -68.8641
LeftForeArm  72.747 -19.3698 -3.47018
LeftHand  -8.5816e-005 0.0236927 -0.607964
RightShoulder  0 2.42657e-020 1.07489e-018
RightArm  -4.65965 10.6489 89.7058
RightForeArm  50.429 21.0329 3.85655
RightHand  1.43428 23.3005 7.3201
LeftUpLeg  -4.70799 -0.0848905 0.286303
LeftLeg  21.829 -3.44321 -1.13033
LeftFoot  -11.6884 0.0709232 0.692889
LeftToes  -12.3055 1.33192e-006 1.13262e-007
162
root  -24.4635 32.7408 13.1768 5.27518 -44.6326 -1.58113
RightUpLeg  -35.7692 -4.78353 0.874803
RightLeg  40.0431 -5.86942 -4.32596
RightFoot  -7.7695 0.0498371 1.11155
RightToes  -29.2816 -0.140722 -0.248735
Spine  8.00946 1.70905 -2.09029
Spine1  14.0447 5.43508 -8.21263
HEad  6.83551 -27.412 27.7045
LeftShoulder1  0 -2.42657e-020 -4.95415e-022
LeftArm  -71.2731 16.5403 -69.3118
LeftForeArm  69.5709 -17.3708 -3.08815
LeftHand  -0.000662863 -0.810953 -0.278655
RightShoulder  0 2.42657e-020 1.07489e-018
RightArm  -8.30961 11.14 88.9396
RightForeArm  50.6822 20.9325 3.83575
RightHand  1.11201 23.36 5.74691
LeftUpLeg  -3.72218 -0.195007 1.10074
LeftLeg  22.5662 -2.98572 -1.02346
LeftFoot  -12.8692 0.0715653 0.634546
LeftToes  -12.9529 1.33192e-006 1.13262e-007
163
root  -25.2006 32.5823 13.477 5.56363 -44.9276 -1.97708
RightUpLeg  -37.4629 -4.65688 -1.0226
RightLeg  35.8762 -6.99025 -4.39498
RightFoot  -5.41456 0.0251559 0.909657
RightToes  -30.5409 -0.138525 -0.246514
Spine  8.10233 1.6673 -1.73904
Spine1  14.3821 5.21598 -7.55327
HEad  7.31952 -27.6642 27.8931
LeftShoulder1  0 -2.42657e-020 -4.95415e-022
LeftArm  -67.9835 12.1606 -69.3553
LeftForeArm  66.7231 -14.3795 -2.52678
LeftHand  -0.0023881 -2.00652 -0.234414
RightShoulder  0 2.42657e-020 1.07489e-018
RightArm  -11.5707 10.7551 88.1575
RightForeArm  50.0325 21.4134 3.93458
RightHand  0.673374 23.6777 3.58252
LeftUpLeg  -2.83468 -0.845873 1.65564
LeftLeg  23.399 -1.9235 -0.692006
LeftFoot  -14.1758 0.0509532 0.40977
LeftToes  -13.4491 1.33192e-006 1.13262e-007
164
root  -26.0599 32.3974 13.8194 5.54581 -45.3844 -2.11665
RightUpLeg  -38.8044 -5.06226 -2.66506
RightLeg  32.128 -7.78746 -4.2067
RightFoot  -2.6045 0.003784 0.544153
RightToes  -29.4533 -0.140175 -0.248149
Spine  8.21351 1.7034 -1.50305
Spine1  14.6973 5.1354 -7.07706
HEad  7.46565 -28.0761 27.9065
LeftShoulder1  0 -2.42657e-020 -4.95415e-022
LeftArm  -63.8083 7.19678 -69.4544
LeftForeArm  62.588 -10.7704 -1.87103
LeftHand  0.0196305 -2.79479 -1.17758
RightShoulder  0 2.42657e-020 1.07489e-018
RightArm  -13.5442 10.5512 87.3773
RightForeArm  49.3053 21.6957 3.99348
RightHand  0.359977 23.3985 2.10882
LeftUpLeg  -1.14132 -0.841644 2.22017
LeftLeg  23.3729 -1.45829 -0.524616
LeftFoot  -15.1461 0.039287 0.295492
LeftToes  -14.4796 1.33192e-006 1.13262e-007
165
root  -27.0343 32.1989 14.2002 5.24261 -45.5559 -1.89821
RightUpLeg  -39.7281 -6.93744 -3.56347
RightLeg  29.21 -8.24967 -3.92545
RightFoot  -2.65036 0.00436612 0.566439
RightToes  -31.0157 -0.150977 -0.258963
Spine  8.26468 1.64187 -1.45984
Spine1  14.8418 4.76147 -6.76442
HEad  7.2472 -28.6651 28.0596
LeftShoulder1  0 -2.42657e-020 -4.95415e-022
LeftArm  -59.8062 2.21088 -69.6875
LeftForeArm  58.8657 -7.60581 -1.30942
LeftHand  0.0476339 -3.2258 -2.06595
RightShoulder  0 2.42657e-020 1.07489e-018
RightArm  -16.2391 10.0093 86.9943
RightForeArm  49.6106 22.0317 4.06186
RightHand  0.237538 23.9147 1.492
LeftUpLeg  0.892584 -1.19772 2.63871
LeftLeg  23.0213 -1.07341 -0.379462
LeftFoot  -15.6187 0.0264894 0.193134
LeftToes  -16.4318 1.33192e-006 1.13262e-007
166
root  -28.1575 31.994 14.5965 4.99341 -45.3596 -1.72624
RightUpLeg  -40.1549 -9.63675 -3.47718
RightLeg  27.584 -9.33146 -4.11353
RightFoot  -3.72344 0.0140827 0.810951
RightToes  -30.0063 -0.143964 -0.252009
Spine  8.28932 1.33531 -1.45224
Spine1  14.8853 3.81265 -6.31525
HEad  6.87581 -29.0397 27.9124
LeftShoulder1  0 -2.42657e-020 -4.95415e-022
LeftArm  -56.6858 -1.77592 -70.558
LeftForeArm  55.9005 -8.42794 -1.46251
LeftHand  0.0711395 -3.55311 -2.66846
RightShoulder  0 2.42657e-020 1.07489e-018
RightArm  -17.3181 9.48883 86.587
RightForeArm  48.9355 22.4406 4.14736
RightHand  0.248168 23.8007 1.54798
LeftUpLeg  2.9203 -2.62382 3.04621
LeftLeg  22.9552 -0.205167 -0.0744861
LeftFoot  -15.712 -0.00549967 -0.0398678
LeftToes  -18.7725 1.33192e-006 1.13262e-007
167
root  -29.4495 31.8303 14.963 5.18163 -45.1795 -2.10818
RightUpLeg  -39.9698 -12.5432 -2.03782
RightLeg  27.3433 -9.75349 -4.2481
RightFoot  -4.30233 0.0209641 0.935808
RightToes  -26.2772 -0.119144 -0.225277
Spine  8.24864 0.935989 -1.33025
Spine1  14.7725 2.67033 -5.61264
HEad  6.47976 -29.3606 27.4419
LeftShoulder1  0 -2.42657e-020 -4.95415e-022
LeftArm  -53.3041 -5.06245 -71.5583
LeftForeArm  52.9797 -9.78175 -1.7117
LeftHand  0.0891204 -3.73555 -3.10809
RightShoulder  0 2.42657e-020 1.07489e-018
RightArm  -17.7261 9.16788 86.3034
RightForeArm  48.484 22.5746 4.17587
RightHand  0.340514 23.8673 1.98159
LeftUpLeg  4.84074 -3.58855 4.13094
LeftLeg  23.2271 0.389602 0.13553
LeftFoot  -15.1473 -0.0260895 -0.196229
LeftToes  -22.6744 1.33192e-006 1.13262e-007
168
root  -30.8871 31.6677 15.3502 4.9566 -44.8313 -2.11575
RightUpLeg  -39.0702 -15.5499 -0.428016
RightLeg  28.8558 -9.71265 -4.5378
RightFoot  -4.08517 0.0178745 0.878874
RightToes  -27.0398 -0.124077 -0.230874
Spine  8.16678 0.337579 -1.27371
Spine1  14.5544 1.19785 -5.07987
HEad  5.90152 -29.3097 26.7407
LeftShoulder1  0 -2.42657e-020 -4.95415e-022
LeftArm  -49.7356 -7.72636 -72.3338
LeftForeArm  50.4188 -11.1018 -1.95586
LeftHand  0.104099 -3.9176 -3.41905
RightShoulder  0 2.42657e-020 1.07489e-018
RightArm  -18.3932 8.91117 86.4144
RightForeArm  48.9624 22.7745 4.21656
RightHand  0.576904 23.824 3.10509
LeftUpLeg  6.78668 -4.40114 5.19038
LeftLeg  23.8681 0.5738 0.208093
LeftFoot  -13.7465 -0.0276305 -0.229232
LeftToes  -28.0652 1.33192e-006 1.13262e-007
169
root  -32.4298 31.5282 15.6928 5.5246 -44.0164 -2.79538
RightUpLeg  -37.7482 -18.91 1.86316
RightLeg  29.9459 -9.46981 -4.64666
RightFoot  -3.35903 0.0092611 0.693539
RightToes  -25.4326 -0.113767 -0.219002
Spine  7.92207 -0.348197 -1.03248
Spine1  14.0169 -0.424367 -4.27402
HEad  4.66643 -29.1435 26.2323
LeftShoulder1  0 -2.42657e-020 -4.95415e-022
LeftArm  -45.3936 -9.71195 -73.1264
LeftForeArm  48.2117 -12.6664 -2.24657
LeftHand  0.127796 -4.18542 -3.87263
RightShoulder  0 2.42657e-020 1.07489e-018
RightArm  -19.4509 8.29277 86.5284
RightForeArm  48.7905 23.1778 4.30096
RightHand  1.02716 23.7613 5.25092
LeftUpLeg  7.42467 -4.46128 7.43213
LeftLeg  26.0531 -0.284598 -0.120295
LeftFoot  -11.892 -0.00552044 -0.0530133
LeftToes  -34.6473 1.33192e-006 1.13262e-007
